# xmcd
#
# Track frame offsets:
#	150
#	29702
#	54698
#	75870
#	104927
#	137578
#	150749
#	173255
#	190657
#	214064
#	234567
#
# Disc length: 3342 seconds
#
# Revision: 1
# Processed by: cddbd v1.5.1PL2 Copyright (c) Steve Scherf et al.
# Submitted via: audiograbber 1.83.01
#
DISCID=8d0d0c0b
DTITLE=Freddie Roulette - Man Of Steel
DYEAR=2005
DGENRE=Blues
TTITLE0=Breaking Up Somebody's Home
TTITLE1=Tattler
TTITLE2=You Got To Funkifize
TTITLE3=Sidewinder
TTITLE4=Nightlife
TTITLE5=How Do Ya Do?
TTITLE6=Taht's Allright Mama
TTITLE7=Surfin'
TTITLE8=In The Heat Of The Night
TTITLE9=Parchman Farm
TTITLE10=Endless Summer Theme
EXTD=
EXTT0=
EXTT1=
EXTT2=
EXTT3=
EXTT4=
EXTT5=
EXTT6=
EXTT7=
EXTT8=
EXTT9=
EXTT10=
PLAYORDER=
